<svg xmlns="http://www.w3.org/2000/svg" xmlns:xlink="http://www.w3.org/1999/xlink" width="500" zoomAndPan="magnify" viewBox="0 0 375 374.999991" height="500" preserveAspectRatio="xMidYMid meet" version="1.0"><defs><g/><clipPath id="f599356ae4"><path d="M 68.59375 168.355469 L 106.84375 168.355469 L 106.84375 206.605469 L 68.59375 206.605469 Z M 68.59375 168.355469 " clip-rule="nonzero"/></clipPath></defs><g clip-path="url(#f599356ae4)"><path fill="#ffffff" d="M 76.226562 199.722656 L 76.660156 200.152344 L 76.703125 200.195312 C 78.050781 201.589844 78.035156 203.839844 76.660156 205.214844 C 75.285156 206.59375 73.039062 206.605469 71.644531 205.257812 L 71.597656 205.214844 L 71.167969 204.785156 L 69.988281 203.601562 C 68.597656 202.210938 68.597656 199.933594 69.988281 198.539062 C 71.378906 197.144531 73.660156 197.144531 75.050781 198.539062 Z M 100.101562 180.128906 L 100.519531 179.707031 L 105.414062 174.8125 C 106.804688 173.421875 106.804688 171.144531 105.414062 169.746094 C 104.019531 168.355469 101.742188 168.355469 100.351562 169.746094 L 95.941406 174.164062 L 95.460938 174.644531 L 95.039062 175.0625 L 92.507812 177.59375 C 91.121094 178.988281 91.121094 181.265625 92.507812 182.660156 L 95.039062 185.191406 L 95.492188 185.640625 L 100.386719 190.535156 C 101.777344 191.925781 104.050781 191.925781 105.449219 190.535156 C 106.839844 189.144531 106.839844 186.863281 105.449219 185.472656 L 100.554688 180.574219 Z M 70.191406 169.78125 L 70.191406 169.777344 C 71.582031 168.386719 73.859375 168.386719 75.25 169.777344 L 105.378906 199.929688 C 106.777344 201.320312 106.777344 203.601562 105.378906 204.992188 C 103.988281 206.386719 101.714844 206.386719 100.320312 204.992188 L 70.191406 174.839844 C 68.800781 173.449219 68.800781 171.171875 70.191406 169.78125 Z M 70.144531 184.214844 C 71.535156 182.824219 73.8125 182.824219 75.207031 184.214844 L 78.636719 187.648438 L 86.0625 195.078125 L 90.957031 199.972656 C 92.347656 201.363281 92.347656 203.644531 90.957031 205.035156 C 89.558594 206.429688 87.285156 206.429688 85.894531 205.035156 L 81 200.140625 L 73.578125 192.710938 L 70.144531 189.28125 C 68.753906 187.886719 68.753906 185.605469 70.144531 184.214844 Z M 70.144531 184.214844 " fill-opacity="1" fill-rule="evenodd"/></g><g fill="#ff66c4" fill-opacity="1"><g transform="translate(109.537533, 197.332165)"><g><path d="M 13.734375 0.421875 C 11.304688 0.421875 9.179688 -0.109375 7.359375 -1.171875 C 5.546875 -2.242188 4.125 -3.71875 3.09375 -5.59375 C 2.070312 -7.476562 1.5625 -9.660156 1.5625 -12.140625 C 1.5625 -14.617188 2.070312 -16.796875 3.09375 -18.671875 C 4.125 -20.554688 5.546875 -22.03125 7.359375 -23.09375 C 9.179688 -24.164062 11.304688 -24.703125 13.734375 -24.703125 C 16.140625 -24.703125 18.253906 -24.164062 20.078125 -23.09375 C 21.910156 -22.03125 23.332031 -20.554688 24.34375 -18.671875 C 25.363281 -16.796875 25.875 -14.617188 25.875 -12.140625 C 25.875 -9.660156 25.363281 -7.476562 24.34375 -5.59375 C 23.332031 -3.71875 21.910156 -2.242188 20.078125 -1.171875 C 18.253906 -0.109375 16.140625 0.421875 13.734375 0.421875 Z M 13.734375 -3.578125 C 16.046875 -3.578125 17.890625 -4.335938 19.265625 -5.859375 C 20.640625 -7.390625 21.328125 -9.484375 21.328125 -12.140625 C 21.328125 -14.796875 20.640625 -16.882812 19.265625 -18.40625 C 17.890625 -19.9375 16.046875 -20.703125 13.734375 -20.703125 C 11.421875 -20.703125 9.570312 -19.9375 8.1875 -18.40625 C 6.800781 -16.882812 6.109375 -14.796875 6.109375 -12.140625 C 6.109375 -9.484375 6.800781 -7.390625 8.1875 -5.859375 C 9.570312 -4.335938 11.421875 -3.578125 13.734375 -3.578125 Z M 13.734375 -3.578125 "/></g></g></g><g fill="#ffffff" fill-opacity="1"><g transform="translate(142.350031, 197.332165)"><g><path d="M 2.359375 0 L 2.359375 -24.28125 L 6.796875 -24.28125 L 18.21875 -7.1875 L 18.21875 -24.28125 L 22.65625 -24.28125 L 22.65625 0 L 18.21875 0 L 6.796875 -17.0625 L 6.796875 0 Z M 2.359375 0 "/></g></g></g><g fill="#ffffff" fill-opacity="1"><g transform="translate(172.737302, 197.332165)"><g><path d="M 8.640625 0 L 8.640625 -8.640625 L 0.484375 -24.28125 L 5.515625 -24.28125 L 10.890625 -13.078125 L 16.234375 -24.28125 L 21.1875 -24.28125 L 13.078125 -8.640625 L 13.078125 0 Z M 8.640625 0 "/></g></g></g><g fill="#ffffff" fill-opacity="1"><g transform="translate(199.794561, 197.332165)"><g><path d="M 0.796875 0 L 9.671875 -24.28125 L 14.671875 -24.28125 L 23.546875 0 L 18.828125 0 L 16.890625 -5.625 L 7.421875 -5.625 L 5.453125 0 Z M 8.640625 -9.09375 L 15.671875 -9.09375 L 12.140625 -19.1875 Z M 8.640625 -9.09375 "/></g></g></g><g fill="#ffffff" fill-opacity="1"><g transform="translate(229.48808, 197.332165)"><g><path d="M 2.359375 0 L 2.359375 -24.28125 L 6.796875 -24.28125 L 18.21875 -7.1875 L 18.21875 -24.28125 L 22.65625 -24.28125 L 22.65625 0 L 18.21875 0 L 6.796875 -17.0625 L 6.796875 0 Z M 2.359375 0 "/></g></g></g><g fill="#ffffff" fill-opacity="1"><g transform="translate(259.875352, 197.332165)"><g><path d="M 12.96875 0.421875 C 10.6875 0.421875 8.6875 -0.0976562 6.96875 -1.140625 C 5.257812 -2.179688 3.929688 -3.632812 2.984375 -5.5 C 2.035156 -7.363281 1.5625 -9.53125 1.5625 -12 C 1.5625 -14.5 2.050781 -16.703125 3.03125 -18.609375 C 4.019531 -20.515625 5.421875 -22.003906 7.234375 -23.078125 C 9.046875 -24.160156 11.203125 -24.703125 13.703125 -24.703125 C 16.546875 -24.703125 18.90625 -24.019531 20.78125 -22.65625 C 22.65625 -21.289062 23.867188 -19.40625 24.421875 -17 L 19.453125 -17 C 19.085938 -18.132812 18.414062 -19.019531 17.4375 -19.65625 C 16.46875 -20.289062 15.222656 -20.609375 13.703125 -20.609375 C 11.273438 -20.609375 9.398438 -19.835938 8.078125 -18.296875 C 6.765625 -16.753906 6.109375 -14.644531 6.109375 -11.96875 C 6.109375 -9.28125 6.757812 -7.203125 8.0625 -5.734375 C 9.375 -4.265625 11.148438 -3.53125 13.390625 -3.53125 C 15.585938 -3.53125 17.242188 -4.125 18.359375 -5.3125 C 19.484375 -6.507812 20.160156 -8.082031 20.390625 -10.03125 L 14.25 -10.03125 L 14.25 -13.359375 L 24.875 -13.359375 L 24.875 0 L 20.78125 0 L 20.4375 -3.1875 C 19.644531 -2.03125 18.660156 -1.140625 17.484375 -0.515625 C 16.304688 0.109375 14.800781 0.421875 12.96875 0.421875 Z M 12.96875 0.421875 "/></g></g></g><g fill="#ffffff" fill-opacity="1"><g transform="translate(292.066367, 197.332165)"><g><path d="M 13.734375 0.421875 C 11.304688 0.421875 9.179688 -0.109375 7.359375 -1.171875 C 5.546875 -2.242188 4.125 -3.71875 3.09375 -5.59375 C 2.070312 -7.476562 1.5625 -9.660156 1.5625 -12.140625 C 1.5625 -14.617188 2.070312 -16.796875 3.09375 -18.671875 C 4.125 -20.554688 5.546875 -22.03125 7.359375 -23.09375 C 9.179688 -24.164062 11.304688 -24.703125 13.734375 -24.703125 C 16.140625 -24.703125 18.253906 -24.164062 20.078125 -23.09375 C 21.910156 -22.03125 23.332031 -20.554688 24.34375 -18.671875 C 25.363281 -16.796875 25.875 -14.617188 25.875 -12.140625 C 25.875 -9.660156 25.363281 -7.476562 24.34375 -5.59375 C 23.332031 -3.71875 21.910156 -2.242188 20.078125 -1.171875 C 18.253906 -0.109375 16.140625 0.421875 13.734375 0.421875 Z M 13.734375 -3.578125 C 16.046875 -3.578125 17.890625 -4.335938 19.265625 -5.859375 C 20.640625 -7.390625 21.328125 -9.484375 21.328125 -12.140625 C 21.328125 -14.796875 20.640625 -16.882812 19.265625 -18.40625 C 17.890625 -19.9375 16.046875 -20.703125 13.734375 -20.703125 C 11.421875 -20.703125 9.570312 -19.9375 8.1875 -18.40625 C 6.800781 -16.882812 6.109375 -14.796875 6.109375 -12.140625 C 6.109375 -9.484375 6.800781 -7.390625 8.1875 -5.859375 C 9.570312 -4.335938 11.421875 -3.578125 13.734375 -3.578125 Z M 13.734375 -3.578125 "/></g></g></g></svg>